# https://github.com/mikedh/trimesh
mtllib scissors_visual_0.mtl
usemtl scissors_mat_0
v -0.00000000 0.00213001 0.00000000
v 0.00081512 0.00196787 0.00000000
v 0.00150614 0.00150615 0.00000000
v 0.00196787 0.00081512 0.00000000
v 0.00213001 0.00000000 0.00000000
v 0.00213001 0.00000000 0.00000000
v 0.00196787 -0.00081512 0.00000000
v 0.00150614 -0.00150614 0.00000000
v 0.00081512 -0.00196787 0.00000000
v -0.00000000 -0.00213001 0.00000000
v -0.00081512 -0.00196787 0.00000000
v -0.00150614 -0.00150614 0.00000000
v -0.00196787 -0.00081512 0.00000000
v -0.00213001 0.00000000 0.00000000
v -0.00196787 0.00081512 0.00000000
v -0.00150614 0.00150615 0.00000000
v -0.00081512 0.00196787 0.00000000
v -0.00000000 0.00000000 -0.00285000
v -0.00000000 0.00213001 0.00130000
v 0.00081512 0.00196787 0.00130000
v 0.00150614 0.00150615 0.00130000
v 0.00196787 0.00081512 0.00130000
v 0.00213001 0.00000000 0.00130000
v 0.00213001 0.00000000 0.00130000
v 0.00196787 -0.00081512 0.00130000
v 0.00150614 -0.00150614 0.00130000
v 0.00081512 -0.00196787 0.00130000
v -0.00000000 -0.00213001 0.00130000
v -0.00081512 -0.00196787 0.00130000
v -0.00150614 -0.00150614 0.00130000
v -0.00196787 -0.00081512 0.00130000
v -0.00213001 0.00000000 0.00130000
v -0.00196787 0.00081512 0.00130000
v -0.00150614 0.00150615 0.00130000
v -0.00081512 0.00196787 0.00130000
v -0.00000000 0.00187511 -0.00285000
v -0.00000000 0.00213001 -0.00260000
v -0.00000000 0.00213001 -0.00260000
v 0.00081512 0.00196787 -0.00260000
v 0.00081512 0.00196787 -0.00260000
v 0.00071757 0.00173238 -0.00285000
v 0.00150614 0.00150615 -0.00260000
v 0.00150614 0.00150615 -0.00260000
v 0.00132590 0.00132591 -0.00285000
v 0.00196787 0.00081512 -0.00260000
v 0.00196787 0.00081512 -0.00260000
v 0.00173238 0.00071758 -0.00285000
v 0.00213001 0.00000000 -0.00260000
v 0.00213001 0.00000000 -0.00260000
v 0.00187511 0.00000000 -0.00285000
v 0.00196787 -0.00081512 -0.00260000
v 0.00173238 -0.00071757 -0.00285000
v 0.00150614 -0.00150614 -0.00260000
v 0.00150614 -0.00150614 -0.00260000
v 0.00132590 -0.00132590 -0.00285000
v 0.00081512 -0.00196787 -0.00260000
v 0.00081512 -0.00196787 -0.00260000
v 0.00071757 -0.00173238 -0.00285000
v -0.00000000 -0.00213001 -0.00260000
v -0.00000000 -0.00213001 -0.00260000
v -0.00000000 -0.00187511 -0.00285000
v -0.00081512 -0.00196787 -0.00260000
v -0.00081512 -0.00196787 -0.00260000
v -0.00071757 -0.00173238 -0.00285000
v -0.00150614 -0.00150614 -0.00260000
v -0.00150614 -0.00150614 -0.00260000
v -0.00132590 -0.00132590 -0.00285000
v -0.00196787 -0.00081512 -0.00260000
v -0.00196787 -0.00081512 -0.00260000
v -0.00173238 -0.00071757 -0.00285000
v -0.00213001 0.00000000 -0.00260000
v -0.00213001 0.00000000 -0.00260000
v -0.00187511 0.00000000 -0.00285000
v -0.00196787 0.00081512 -0.00260000
v -0.00196787 0.00081512 -0.00260000
v -0.00173238 0.00071758 -0.00285000
v -0.00150614 0.00150615 -0.00260000
v -0.00150614 0.00150615 -0.00260000
v -0.00132590 0.00132591 -0.00285000
v -0.00081512 0.00196787 -0.00260000
v -0.00081512 0.00196787 -0.00260000
v -0.00071757 0.00173238 -0.00285000
v 0.00095902 -0.00280714 0.00211807
v -0.00251079 -0.00173489 0.00211807
v -0.00251079 0.00173490 0.00211807
v 0.00095902 0.00280714 0.00211807
v 0.00310350 0.00000000 0.00211806
v -0.00000000 0.00000000 0.00354020
v 0.00330000 -0.00101974 0.00096752
v 0.00330000 0.00101974 0.00096752
v -0.00000000 -0.00330000 0.00096752
v 0.00203951 -0.00266975 0.00096752
v -0.00330000 -0.00101974 0.00096752
v -0.00203951 -0.00266975 0.00096752
v -0.00203951 0.00266976 0.00096752
v -0.00330000 0.00101974 0.00096752
v 0.00203951 0.00266976 0.00096752
v -0.00000000 0.00330000 0.00096752
v 0.00238789 -0.00164999 0.00232007
v -0.00091211 -0.00266974 0.00232007
v -0.00295160 0.00000000 0.00232007
v -0.00091211 0.00266974 0.00232007
v 0.00238789 0.00164999 0.00232007
v 0.00056369 -0.00164998 0.00315598
v 0.00182419 0.00000000 0.00315597
v -0.00147579 -0.00101973 0.00315598
v -0.00147579 0.00101974 0.00315598
v 0.00056369 0.00164999 0.00315598
vn -0.00000001 1.00000000 0.00000000
vn 0.38268214 0.92388007 0.00000000
vn 0.70710660 0.70710696 0.00000000
vn 0.92387959 0.38268329 0.00000000
vn 1.00000000 -0.00000020 0.00000000
vn 1.00000000 -0.00000020 0.00000000
vn 0.92387951 -0.38268349 0.00000000
vn 0.70710729 -0.70710627 0.00000000
vn 0.38268307 -0.92387968 0.00000000
vn 0.00000000 -1.00000000 0.00000000
vn -0.38268312 -0.92387966 0.00000000
vn -0.70710702 -0.70710654 0.00000000
vn -0.92387939 -0.38268378 0.00000000
vn -1.00000000 -0.00000022 0.00000000
vn -0.92387946 0.38268361 0.00000000
vn -0.70710636 0.70710720 0.00000000
vn -0.38268223 0.92388003 0.00000000
vn 0.00000000 0.00000003 -1.00000000
vn -0.00000001 1.00000000 0.00000000
vn 0.38268219 0.92388005 0.00000000
vn 0.70710663 0.70710693 0.00000000
vn 0.92387959 0.38268329 0.00000000
vn 1.00000000 -0.00000020 0.00000000
vn 1.00000000 -0.00000020 0.00000000
vn 0.92387951 -0.38268349 0.00000000
vn 0.70710729 -0.70710627 0.00000000
vn 0.38268307 -0.92387968 0.00000000
vn 0.00000000 -1.00000000 0.00000000
vn -0.38268312 -0.92387966 0.00000000
vn -0.70710702 -0.70710654 0.00000000
vn -0.92387939 -0.38268378 0.00000000
vn -1.00000000 -0.00000022 0.00000000
vn -0.92387946 0.38268361 0.00000000
vn -0.70710639 0.70710717 0.00000000
vn -0.38268223 0.92388003 0.00000000
vn -0.00000003 0.41722609 -0.90880272
vn -0.00000002 0.92864365 -0.37097300
vn -0.00000002 0.92864365 -0.37097300
vn 0.35537548 0.85795529 -0.37097303
vn 0.35537548 0.85795529 -0.37097303
vn 0.15966525 0.38546734 -0.90880248
vn 0.65664994 0.65665035 -0.37097328
vn 0.65664994 0.65665035 -0.37097328
vn 0.29502305 0.29502332 -0.90880286
vn 0.85795491 0.35537630 -0.37097313
vn 0.85795491 0.35537630 -0.37097313
vn 0.38546685 0.15966547 -0.90880264
vn 0.92864367 -0.00000021 -0.37097295
vn 0.92864367 -0.00000021 -0.37097295
vn 0.41722631 -0.00000013 -0.90880262
vn 0.85795471 -0.35537659 -0.37097331
vn 0.38546664 -0.15966568 -0.90880270
vn 0.65665045 -0.65664979 -0.37097336
vn 0.65665045 -0.65664979 -0.37097336
vn 0.29502327 -0.29502291 -0.90880292
vn 0.35537625 -0.85795492 -0.37097314
vn 0.35537625 -0.85795492 -0.37097314
vn 0.15966556 -0.38546719 -0.90880248
vn -0.00000005 -0.92864367 -0.37097295
vn -0.00000005 -0.92864367 -0.37097295
vn -0.00000006 -0.41722609 -0.90880272
vn -0.35537636 -0.85795491 -0.37097307
vn -0.35537636 -0.85795491 -0.37097307
vn -0.15966571 -0.38546721 -0.90880245
vn -0.65665038 -0.65664990 -0.37097329
vn -0.65665038 -0.65664990 -0.37097329
vn -0.29502331 -0.29502283 -0.90880294
vn -0.85795464 -0.35537685 -0.37097324
vn -0.85795464 -0.35537685 -0.37097324
vn -0.38546668 -0.15966577 -0.90880266
vn -0.92864360 -0.00000022 -0.37097312
vn -0.92864360 -0.00000022 -0.37097312
vn -0.41722621 -0.00000013 -0.90880267
vn -0.85795471 0.35537665 -0.37097324
vn -0.85795471 0.35537665 -0.37097324
vn -0.38546671 0.15966571 -0.90880266
vn -0.65664960 0.65665061 -0.37097341
vn -0.65664960 0.65665061 -0.37097341
vn -0.29502270 0.29502347 -0.90880293
vn -0.35537555 0.85795527 -0.37097302
vn -0.35537555 0.85795527 -0.37097302
vn -0.15966532 0.38546736 -0.90880245
vn 0.25433204 -0.81579889 0.51941062
vn -0.67733968 -0.51275118 0.52753880
vn -0.67733970 0.51275114 0.52753881
vn 0.25433200 0.81579898 0.51941048
vn 0.84632757 0.00000001 0.53266279
vn -0.00003168 0.00000001 1.00000000
vn 0.89645120 -0.32163849 0.30483427
vn 0.89645118 0.32163853 0.30483428
vn -0.01712927 -0.95515311 0.29561652
vn 0.56052153 -0.77193942 0.29987522
vn -0.90763032 -0.28763658 0.30573258
vn -0.53220240 -0.79224243 0.29851724
vn -0.53220238 0.79224243 0.29851727
vn -0.90763035 0.28763649 0.30573255
vn 0.56052148 0.77193952 0.29987505
vn -0.01712923 0.95515313 0.29561644
vn 0.63440677 -0.48076668 0.60530277
vn -0.23840627 -0.76551994 0.59761331
vn -0.79226972 0.00000000 0.61017103
vn -0.23840626 0.76551995 0.59761331
vn 0.63440678 0.48076673 0.60530273
vn 0.13302977 -0.42704404 0.89439167
vn 0.43343275 0.00000001 0.90118591
vn -0.34975279 -0.26501087 0.89857789
vn -0.34975282 0.26501091 0.89857787
vn 0.13302976 0.42704405 0.89439167
vt 0.02754155 0.76846850
vt 0.02587612 0.77345878
vt 0.02421068 0.77844900
vt 0.02254524 0.78343922
vt 0.02087980 0.78842950
vt 0.04752680 0.70858556
vt 0.04586138 0.71357578
vt 0.04419595 0.71856600
vt 0.04253048 0.72355634
vt 0.04086505 0.72854656
vt 0.03919961 0.73353678
vt 0.03753418 0.73852706
vt 0.03586874 0.74351728
vt 0.03420330 0.74850756
vt 0.03253786 0.75349778
vt 0.03087243 0.75848800
vt 0.02920699 0.76347828
vt 0.01857763 0.70166743
vt 0.03534736 0.77107364
vt 0.03368192 0.77606386
vt 0.03201648 0.78105408
vt 0.03035105 0.78604436
vt 0.02868561 0.79103458
vt 0.05533262 0.71119064
vt 0.05366719 0.71618086
vt 0.05200175 0.72117108
vt 0.05033629 0.72616142
vt 0.04867086 0.73115164
vt 0.04700542 0.73614192
vt 0.04533999 0.74113214
vt 0.04367455 0.74612242
vt 0.04200911 0.75111264
vt 0.04034367 0.75610286
vt 0.03867824 0.76109314
vt 0.03701280 0.76608336
vt 0.02005079 0.69056791
vt 0.01192993 0.76325834
vt 0.02034270 0.68832582
vt 0.01026450 0.76824856
vt 0.02530603 0.69004130
vt 0.02421117 0.69193453
vt 0.00859906 0.77323878
vt 0.02921393 0.69346792
vt 0.02747607 0.69482869
vt 0.00693362 0.77822906
vt 0.03154451 0.69814605
vt 0.02941152 0.69874781
vt 0.00526819 0.78321928
vt 0.03191518 0.70337540
vt 0.02970717 0.70311540
vt 0.03024977 0.70836556
vt 0.02830173 0.70726973
vt 0.02676267 0.71235919
vt 0.02858433 0.71335584
vt 0.02538300 0.71056163
vt 0.02202369 0.71465755
vt 0.02691889 0.71834606
vt 0.02146368 0.71253115
vt 0.01678915 0.71498162
vt 0.02525345 0.72333628
vt 0.01709141 0.71275735
vt 0.01185291 0.71326524
vt 0.02358801 0.72832656
vt 0.01294703 0.71138066
vt 0.00795896 0.70984542
vt 0.02192255 0.73331684
vt 0.00969308 0.70848966
vt 0.00563654 0.70517832
vt 0.02025712 0.73830712
vt 0.00776377 0.70457864
vt 0.00526819 0.69996464
vt 0.01859168 0.74329734
vt 0.00746776 0.70022219
vt 0.00692275 0.69499809
vt 0.01692624 0.74828756
vt 0.00885977 0.69607872
vt 0.01035685 0.69103593
vt 0.01526081 0.75327784
vt 0.01173506 0.69277990
vt 0.01359537 0.75826806
vt 0.01506014 0.68868530
vt 0.01566319 0.69083536
vt 0.18811695 0.17275310
vt 0.18819471 0.15060532
vt 0.16799794 0.14416671
vt 0.15524292 0.16227317
vt 0.16774906 0.17984372
vt 0.17346016 0.16192889
vt 0.17329994 0.18966269
vt 0.15753943 0.18463838
vt 0.19926608 0.17021137
vt 0.18934798 0.18418622
vt 0.18945059 0.13927376
vt 0.19926323 0.15287352
vt 0.15765886 0.13961035
vt 0.17353211 0.13419902
vt 0.14762197 0.17088425
vt 0.14762197 0.15374762
vt 0.17849150 0.17828882
vt 0.19022325 0.16160893
vt 0.17872258 0.14542156
vt 0.15997519 0.15196604
vt 0.15988857 0.17235833
vt 0.18076511 0.16733444
vt 0.17058522 0.17094713
vt 0.18084496 0.15623820
vt 0.17073150 0.15301406
vt 0.16437449 0.16210926
f 19/19/19 20/20/20 2/2/2
f 19/19/19 2/2/2 1/1/1
f 20/20/20 21/21/21 3/3/3
f 20/20/20 3/3/3 2/2/2
f 21/21/21 22/22/22 4/4/4
f 21/21/21 4/4/4 3/3/3
f 22/22/22 23/23/23 5/5/5
f 22/22/22 5/5/5 4/4/4
f 24/24/24 25/25/25 7/7/7
f 24/24/24 7/7/7 6/6/6
f 25/25/25 26/26/26 8/8/8
f 25/25/25 8/8/8 7/7/7
f 26/26/26 27/27/27 9/9/9
f 26/26/26 9/9/9 8/8/8
f 27/27/27 28/28/28 10/10/10
f 27/27/27 10/10/10 9/9/9
f 28/28/28 29/29/29 11/11/11
f 28/28/28 11/11/11 10/10/10
f 29/29/29 30/30/30 12/12/12
f 29/29/29 12/12/12 11/11/11
f 30/30/30 31/31/31 13/13/13
f 30/30/30 13/13/13 12/12/12
f 31/31/31 32/32/32 14/14/14
f 31/31/31 14/14/14 13/13/13
f 32/32/32 33/33/33 15/15/15
f 32/32/32 15/15/15 14/14/14
f 33/33/33 34/34/34 16/16/16
f 33/33/33 16/16/16 15/15/15
f 34/34/34 35/35/35 17/17/17
f 34/34/34 17/17/17 16/16/16
f 35/35/35 19/19/19 1/1/1
f 35/35/35 1/1/1 17/17/17
f 18/18/18 82/82/82 36/36/36
f 80/80/80 17/17/17 1/1/1
f 80/80/80 1/1/1 37/37/37
f 39/39/39 2/2/2 3/3/3
f 39/39/39 3/3/3 42/42/42
f 42/42/42 3/3/3 4/4/4
f 42/42/42 4/4/4 45/45/45
f 45/45/45 4/4/4 5/5/5
f 45/45/45 5/5/5 48/48/48
f 49/49/49 6/6/6 7/7/7
f 49/49/49 7/7/7 51/51/51
f 51/51/51 7/7/7 8/8/8
f 51/51/51 8/8/8 54/54/54
f 54/54/54 8/8/8 9/9/9
f 54/54/54 9/9/9 57/57/57
f 57/57/57 9/9/9 10/10/10
f 57/57/57 10/10/10 60/60/60
f 60/60/60 10/10/10 11/11/11
f 60/60/60 11/11/11 63/63/63
f 63/63/63 11/11/11 12/12/12
f 63/63/63 12/12/12 66/66/66
f 66/66/66 12/12/12 13/13/13
f 66/66/66 13/13/13 69/69/69
f 69/69/69 13/13/13 14/14/14
f 69/69/69 14/14/14 72/72/72
f 72/72/72 14/14/14 15/15/15
f 72/72/72 15/15/15 75/75/75
f 75/75/75 15/15/15 16/16/16
f 75/75/75 16/16/16 78/78/78
f 78/78/78 16/16/16 17/17/17
f 78/78/78 17/17/17 80/80/80
f 18/18/18 36/36/36 41/41/41
f 18/18/18 41/41/41 44/44/44
f 18/18/18 44/44/44 47/47/47
f 18/18/18 47/47/47 50/50/50
f 18/18/18 50/50/50 52/52/52
f 18/18/18 52/52/52 55/55/55
f 18/18/18 55/55/55 58/58/58
f 18/18/18 58/58/58 61/61/61
f 18/18/18 61/61/61 64/64/64
f 18/18/18 64/64/64 67/67/67
f 18/18/18 67/67/67 70/70/70
f 18/18/18 70/70/70 73/73/73
f 18/18/18 73/73/73 76/76/76
f 18/18/18 76/76/76 79/79/79
f 18/18/18 79/79/79 82/82/82
f 37/37/37 1/1/1 2/2/2
f 37/37/37 2/2/2 39/39/39
f 41/41/41 36/36/36 38/38/38
f 41/41/41 38/38/38 40/40/40
f 44/44/44 41/41/41 40/40/40
f 44/44/44 40/40/40 43/43/43
f 47/47/47 44/44/44 43/43/43
f 47/47/47 43/43/43 46/46/46
f 50/50/50 47/47/47 46/46/46
f 50/50/50 46/46/46 49/49/49
f 52/52/52 50/50/50 49/49/49
f 52/52/52 49/49/49 51/51/51
f 55/55/55 52/52/52 51/51/51
f 55/55/55 51/51/51 53/53/53
f 58/58/58 55/55/55 53/53/53
f 58/58/58 53/53/53 56/56/56
f 61/61/61 58/58/58 56/56/56
f 61/61/61 56/56/56 59/59/59
f 64/64/64 61/61/61 59/59/59
f 64/64/64 59/59/59 62/62/62
f 67/67/67 64/64/64 62/62/62
f 67/67/67 62/62/62 65/65/65
f 70/70/70 67/67/67 65/65/65
f 70/70/70 65/65/65 68/68/68
f 73/73/73 70/70/70 68/68/68
f 73/73/73 68/68/68 71/71/71
f 76/76/76 73/73/73 71/71/71
f 76/76/76 71/71/71 74/74/74
f 79/79/79 76/76/76 74/74/74
f 79/79/79 74/74/74 77/77/77
f 82/82/82 79/79/79 77/77/77
f 82/82/82 77/77/77 81/81/81
f 36/36/36 82/82/82 81/81/81
f 36/36/36 81/81/81 38/38/38
f 83/83/83 99/99/99 104/104/104
f 84/84/84 100/100/100 106/106/106
f 85/85/85 101/101/101 107/107/107
f 86/86/86 102/102/102 108/108/108
f 87/87/87 103/103/103 105/105/105
f 105/105/105 108/108/108 88/88/88
f 105/105/105 103/103/103 108/108/108
f 103/103/103 86/86/86 108/108/108
f 108/108/108 107/107/107 88/88/88
f 108/108/108 102/102/102 107/107/107
f 102/102/102 85/85/85 107/107/107
f 107/107/107 106/106/106 88/88/88
f 107/107/107 101/101/101 106/106/106
f 101/101/101 84/84/84 106/106/106
f 106/106/106 104/104/104 88/88/88
f 106/106/106 100/100/100 104/104/104
f 100/100/100 83/83/83 104/104/104
f 104/104/104 105/105/105 88/88/88
f 104/104/104 99/99/99 105/105/105
f 99/99/99 87/87/87 105/105/105
f 90/90/90 103/103/103 87/87/87
f 90/90/90 97/97/97 103/103/103
f 97/97/97 86/86/86 103/103/103
f 98/98/98 102/102/102 86/86/86
f 98/98/98 95/95/95 102/102/102
f 95/95/95 85/85/85 102/102/102
f 96/96/96 101/101/101 85/85/85
f 96/96/96 93/93/93 101/101/101
f 93/93/93 84/84/84 101/101/101
f 94/94/94 100/100/100 84/84/84
f 94/94/94 91/91/91 100/100/100
f 91/91/91 83/83/83 100/100/100
f 92/92/92 99/99/99 83/83/83
f 92/92/92 89/89/89 99/99/99
f 89/89/89 87/87/87 99/99/99
f 97/97/97 98/98/98 86/86/86
f 95/95/95 96/96/96 85/85/85
f 93/93/93 94/94/94 84/84/84
f 91/91/91 92/92/92 83/83/83
f 89/89/89 90/90/90 87/87/87

